<svg width="112" height="97" viewBox="0 0 112 97" fill="none" xmlns="http://www.w3.org/2000/svg">
<path d="M0.614347 15.8042C2.21071 28.7419 14.8625 39.4876 26.9663 44.1575C22.1772 46.5163 17.4595 49.5661 13.695 52.9494C4.73628 61.384 -0.171928 76.4184 12.0748 84.4717C25.8702 93.4304 44.4548 81.7793 54.2236 72.1058C56.1297 70.1283 57.7976 68.0315 59.3225 65.8395C59.3939 70.1044 59.8942 74.0834 60.5375 76.8949C63.1823 89.1416 76.1915 103.39 88.4859 92.7871C100.113 82.4941 91.1067 65.8157 82.0766 53.1401C91.3927 52.4253 101.638 49.2564 108.166 43.8001C116.22 36.9143 108.834 28.8849 100.328 27.3838C96.2056 26.6214 91.6786 27.0741 87.1754 28.2654C90.6303 23.2142 92.6554 17.4006 91.893 11.301C88.8909 -13.383 58.4647 9.65702 51.5074 26.6452C45.4555 16.1854 36.6398 7.27439 25.2985 2.69973C15.6726 -1.23161 -1.19643 2.2947 0.638196 15.7804L0.614347 15.8042Z" fill="#B70569"/>
<path d="M17.1323 22.8329C18.2759 32.1967 27.4253 39.9641 36.1933 43.3474C32.7385 45.0391 29.3075 47.2549 26.5913 49.709C20.1106 55.8086 16.5605 66.6734 25.4239 72.487C35.3833 78.9678 48.8213 70.5333 55.8978 63.5522C57.2797 62.1226 58.4948 60.5977 59.5908 59.0251C59.6385 62.0987 59.9959 64.9817 60.4724 67.0308C62.4023 75.8942 71.7899 86.1872 80.6771 78.5389C89.0878 71.0813 82.5594 59.0252 76.031 49.8758C82.7738 49.3517 90.16 47.0643 94.9015 43.133C100.715 38.1533 95.378 32.3635 89.2308 31.2675C86.2525 30.7195 82.9883 31.053 79.7002 31.9108C82.202 28.2653 83.6554 24.0481 83.1312 19.6164C80.963 1.7705 58.9713 18.4489 53.9201 30.7195C49.5361 23.1665 43.1745 16.7096 34.9544 13.3977C27.9971 10.5624 15.798 13.1118 17.1323 22.8568V22.8329Z" fill="#FEB4D1"/>
<path d="M54.9362 33.6025C64.1093 32.1253 72.234 35.2703 73.1156 40.6312C73.9972 46.016 67.2543 51.5675 58.0812 53.0448C48.9081 54.522 40.7594 51.3769 39.9017 46.016C39.0201 40.6551 45.763 35.0797 54.9362 33.6025Z" fill="#210D15"/>
</svg>
