<svg width="112" height="96" viewBox="0 0 112 96" fill="none" xmlns="http://www.w3.org/2000/svg">
<path d="M0.114347 15.3042C1.71071 28.2419 14.3625 38.9876 26.4663 43.6575C21.6772 46.0163 16.9595 49.0661 13.195 52.4494C4.23628 60.884 -0.671928 75.9184 11.5748 83.9717C25.3702 92.9304 43.9548 81.2793 53.7236 71.6058C55.6297 69.6283 57.2976 67.5315 58.8225 65.3395C58.8939 69.6044 59.3942 73.5834 60.0375 76.3949C62.6823 88.6416 75.6915 102.89 87.9859 92.2871C99.6131 81.9941 90.6067 65.3157 81.5766 52.6401C90.8927 51.9253 101.138 48.7564 107.666 43.3001C115.72 36.4143 108.334 28.3849 99.8275 26.8838C95.7056 26.1214 91.1786 26.5741 86.6754 27.7654C90.1303 22.7142 92.1554 16.9006 91.393 10.801C88.3909 -13.883 57.9647 9.15702 51.0074 26.1452C44.9555 15.6854 36.1398 6.77439 24.7985 2.19973C15.1726 -1.73161 -1.69643 1.7947 0.138196 15.2804L0.114347 15.3042Z" fill="#FEFEFE"/>
<path d="M16.6323 22.3329C17.7759 31.6967 26.9253 39.4641 35.6933 42.8474C32.2385 44.5391 28.8075 46.7549 26.0913 49.209C19.6106 55.3086 16.0605 66.1734 24.9239 71.987C34.8833 78.4678 48.3213 70.0333 55.3978 63.0522C56.7797 61.6226 57.9948 60.0977 59.0908 58.5251C59.1385 61.5987 59.4959 64.4817 59.9724 66.5308C61.9023 75.3942 71.2899 85.6872 80.1771 78.0389C88.5878 70.5813 82.0594 58.5252 75.531 49.3758C82.2738 48.8517 89.66 46.5643 94.4015 42.633C100.215 37.6533 94.878 31.8635 88.7308 30.7675C85.7525 30.2195 82.4883 30.553 79.2002 31.4108C81.702 27.7653 83.1554 23.5481 82.6312 19.1164C80.463 1.2705 58.4713 17.9489 53.4201 30.2195C49.0361 22.6665 42.6745 16.2096 34.4544 12.8977C27.4971 10.0624 15.298 12.6118 16.6323 22.3568V22.3329Z" fill="#FEB4D1"/>
<path d="M54.4401 33.1025C63.6132 31.6253 71.7379 34.7703 72.6195 40.1312C73.5011 45.516 66.7582 51.0675 57.5851 52.5448C48.412 54.022 40.2634 50.8769 39.4056 45.516C38.524 40.1551 45.267 34.5797 54.4401 33.1025Z" fill="#210D15"/>
</svg>
