<svg width="123" height="156" viewBox="0 0 123 156" fill="none" xmlns="http://www.w3.org/2000/svg">
<path d="M-11.9958 211.416L-11.9965 211.426L-11.9973 211.435C-12.2057 213.893 -11.4317 216.335 -9.84371 218.226C-8.25764 220.115 -5.98892 221.301 -3.53303 221.525C-3.52998 221.526 -3.52693 221.526 -3.52389 221.526L21.9618 223.558L21.9722 223.559L21.9826 223.56C23.1792 223.668 24.385 223.537 25.5293 223.173C26.6737 222.81 27.7337 222.222 28.6474 221.444C29.5612 220.666 30.3104 219.714 30.8512 218.643C31.392 217.572 31.7136 216.404 31.7972 215.207L31.7977 215.201L36.2482 154.109L36.4851 150.857L39.2765 152.542L92.0334 184.391C94.3802 185.666 97.1136 186.033 99.712 185.422C102.304 184.813 104.579 183.274 106.108 181.098L119.314 159.222C120.573 157.138 120.763 154.507 120.001 151.965C119.237 149.418 117.567 147.139 115.373 145.815L62.2226 113.728L59.4703 112.067L62.1772 110.332L114.347 76.9022L114.348 76.9015C115.366 76.2507 116.244 75.4053 116.932 74.4138C117.621 73.4224 118.106 72.3044 118.361 71.1243C118.615 69.9442 118.634 68.725 118.415 67.537C118.196 66.3489 117.745 65.2155 117.086 64.2019L117.08 64.1921L103.232 42.6046C103.231 42.6033 103.23 42.602 103.229 42.6006C101.89 40.535 99.79 39.0803 97.3849 38.5533C94.9798 38.0263 92.4653 38.4697 90.3883 39.7862C90.3871 39.787 90.3858 39.7878 90.3846 39.7886L46.2786 68.0223L42.9031 70.1832L43.2061 66.1867L47.1627 14.0043C47.1628 14.0026 47.1629 14.0009 47.1631 13.9992C47.3341 11.5547 46.536 9.13954 44.9402 7.27583C43.3448 5.41258 41.0808 4.25078 38.6374 4.04119C38.6351 4.04098 38.6327 4.04078 38.6303 4.04058L13.1257 2.06617L13.1208 2.06578C11.9087 1.96892 10.6899 2.11249 9.53427 2.48812C8.37871 2.86373 7.30918 3.46401 6.38709 4.25434C5.46501 5.04466 4.70855 6.00946 4.16118 7.09328C3.61379 8.1771 3.28624 9.35866 3.1974 10.5701L3.19736 10.5705L-1.31865 71.9532L-1.55771 75.2025L-4.3469 73.5187L-57.1747 41.6268C-58.2213 41.0208 -59.3768 40.6262 -60.5753 40.4656C-61.7789 40.3042 -63.0022 40.382 -64.1751 40.6943C-65.3479 41.0066 -66.4471 41.5472 -67.4098 42.2852C-68.3724 43.0231 -69.1796 43.9438 -69.7851 44.9945L-69.7952 45.0122L-69.8057 45.0296L-82.988 66.8656C-85.7552 71.4493 -84.6424 77.5786 -80.4331 80.1197L-27.3153 112.187L-24.5563 113.852L-27.2735 115.585L-79.2876 148.757L-79.2986 148.764C-80.3021 149.394 -81.1682 150.221 -81.8453 151.193C-82.5224 152.165 -82.9967 153.264 -83.2402 154.424C-83.4836 155.584 -83.4911 156.781 -83.2621 157.945C-83.0331 159.108 -82.5724 160.214 -81.9071 161.197L-81.8932 161.217L-81.8798 161.238L-68.032 182.826C-68.0313 182.827 -68.0305 182.828 -68.0298 182.829C-66.6909 184.895 -64.5902 186.35 -62.1849 186.877C-59.7797 187.404 -57.2652 186.96 -55.1882 185.644C-55.187 185.643 -55.1858 185.642 -55.1846 185.642L-11.1288 157.38L-7.75258 155.214L-8.05455 159.214L-11.9958 211.416Z" stroke="url(#paint0_linear_5094_14018)" stroke-width="4"/>
<defs>
<linearGradient id="paint0_linear_5094_14018" x1="-37.2566" y1="204.842" x2="73.571" y2="21.2605" gradientUnits="userSpaceOnUse">
<stop stop-color="#B70569"/>
<stop offset="1" stop-color="white"/>
</linearGradient>
</defs>
</svg>
